<svg width="55" height="55" viewBox="0 0 55 55" fill="none" xmlns="http://www.w3.org/2000/svg">
<path fill-rule="evenodd" clip-rule="evenodd" d="M16.8223 4.23537C16.1284 4.70844 16.0575 4.90109 16.0206 6.41594L15.9872 7.7859L13.3538 7.83389C10.4667 7.8866 10.1263 7.94147 8.75359 8.57564C6.40822 9.65924 4.74186 11.729 4.16327 14.2776C4.01515 14.93 3.99792 16.5003 4.00018 29.1891C4.00243 41.7751 4.0211 43.4522 4.16573 44.0895C4.62627 46.1174 5.86675 47.9577 7.56008 49.1248C8.16996 49.5452 9.33516 50.0769 10.1562 50.3096C10.7796 50.4863 11.3851 50.4986 19.4569 50.4986C28.0172 50.4986 28.0933 50.4967 28.3741 50.2867C28.9124 49.8843 29.0804 49.5558 29.0804 48.906C29.0804 48.2562 28.9125 47.9279 28.3743 47.5252C28.095 47.3163 27.9733 47.3126 19.611 47.2592C13.8429 47.2223 11.0303 47.169 10.817 47.0922C9.1251 46.4836 7.96257 45.3289 7.48572 43.7834C7.29166 43.1543 7.28427 42.7827 7.28427 33.6882V24.246H27.4825H47.6806L47.7145 26.1211C47.7462 27.8798 47.7632 28.0205 47.9894 28.3848C48.6216 29.4036 49.9694 29.4207 50.7164 28.4195C50.9146 28.1538 50.9312 27.9599 50.9792 25.3433C51.0074 23.8073 51.0069 20.7242 50.9781 18.4919L50.9256 14.4333L50.6023 13.5035C49.851 11.3434 48.497 9.74185 46.575 8.74025C45.1101 7.97681 44.6069 7.88444 41.6274 7.83214L38.9939 7.7859L38.9606 6.41594C38.9314 5.21808 38.9002 5.00949 38.7126 4.75621C37.9658 3.74793 36.7089 3.74793 35.9621 4.75621C35.7743 5.0098 35.7433 5.21797 35.714 6.4259L35.6803 7.80594H27.4906H19.3009L19.2672 6.4259C19.2379 5.21797 19.2069 5.0098 19.0191 4.75621C18.655 4.26466 18.1787 4.00419 17.6439 4.00419C17.3124 4.00419 17.0552 4.07652 16.8223 4.23537ZM16.0205 12.474C16.0498 13.6819 16.0808 13.8901 16.2686 14.1437C17.0154 15.152 18.2723 15.152 19.0191 14.1437C19.2069 13.8901 19.2379 13.6819 19.2672 12.474L19.3009 11.0939H27.4906H35.6803L35.714 12.474C35.7433 13.6819 35.7743 13.8901 35.9621 14.1437C36.7089 15.152 37.9658 15.152 38.7126 14.1437C38.9004 13.8901 38.9314 13.6819 38.9607 12.474L38.9944 11.0939H41.1701C42.7897 11.0939 43.5021 11.1342 43.9572 11.2514C45.6826 11.6954 46.9851 12.9182 47.4955 14.5725C47.6753 15.1556 47.6969 15.5332 47.6969 18.0917V20.958H27.4906H7.28427V18.0917C7.28427 15.5115 7.30478 15.1589 7.49033 14.5571C7.8799 13.2937 8.77092 12.2446 9.96843 11.6395C10.8716 11.1831 11.3739 11.112 13.7639 11.1027L15.9868 11.0939L16.0205 12.474ZM38.1579 28.1561C36.4998 28.3601 34.4402 29.1429 33.0194 30.1095C32.1881 30.675 30.9899 31.8231 30.3531 32.6641C29.6839 33.5481 28.7875 35.3714 28.4708 36.4934C27.7723 38.9672 27.9546 41.7484 28.9696 44.1C30.4071 47.4309 33.1498 49.7718 36.7906 50.7756C37.4764 50.9647 37.871 50.9974 39.4913 50.9998C41.236 51.0025 41.4714 50.9804 42.4146 50.7254C43.6174 50.4001 45.0557 49.73 46.0929 49.0118C46.9872 48.3925 48.2622 47.1263 48.8966 46.2274C49.5731 45.2689 50.3313 43.6297 50.6358 42.4673C50.9878 41.1234 51.0761 39.0112 50.8377 37.6373C50.028 32.9697 46.3499 29.1853 41.7791 28.3166C40.6958 28.1108 39.1012 28.0401 38.1579 28.1561ZM41.4136 31.5965C44.2127 32.2385 46.4796 34.381 47.3888 37.2438C47.7339 38.3304 47.7888 40.2419 47.5088 41.4152C47.1376 42.9703 46.4981 44.1468 45.4032 45.2892C44.2927 46.4475 42.9652 47.1998 41.3475 47.5873C40.1763 47.8678 38.2682 47.8127 37.1835 47.4671C34.306 46.55 32.2241 44.3286 31.5257 41.43C31.2806 40.4124 31.306 38.5966 31.5801 37.5521C32.5697 33.7801 36.0873 31.1792 39.9016 31.3994C40.3811 31.4271 41.0615 31.5157 41.4136 31.5965ZM43.2351 35.3582C43.1223 35.4196 42.0032 36.4926 40.7482 37.7427L38.4664 40.0155L37.3121 38.8712C35.9873 37.5578 35.6584 37.3523 35.0008 37.4266C33.901 37.5508 33.192 38.8017 33.6892 39.7407C33.9121 40.1615 37.5525 43.7432 37.8825 43.8663C38.2939 44.0197 38.7322 43.9997 39.1118 43.8099C39.5788 43.5763 45.1032 38.0467 45.3562 37.5597C45.8925 36.5264 45.088 35.2356 43.9123 35.2433C43.6527 35.245 43.348 35.2967 43.2351 35.3582Z" fill="#D29650"/>
</svg>
