<svg width="55" height="55" viewBox="0 0 55 55" fill="none" xmlns="http://www.w3.org/2000/svg">
<path fill-rule="evenodd" clip-rule="evenodd" d="M25.8651 2.1332C24.6048 2.43965 23.3919 3.40502 22.7829 4.58647L22.49 5.1546L20.4856 5.18502C18.6425 5.21295 18.4593 5.23201 18.2076 5.42115C17.6141 5.86717 17.5275 6.08994 17.4914 7.2628L17.4579 8.34848L13.9196 8.37811L10.3812 8.40774L9.82698 8.6691C9.12244 9.0013 8.59034 9.53631 8.25995 10.2447L8 10.802V30.7039V50.6058L8.25995 51.163C8.59034 51.8714 9.12244 52.4064 9.82698 52.7386L10.3812 53H27H43.6188L44.173 52.7386C44.8776 52.4064 45.4097 51.8714 45.7401 51.163L46 50.6058V30.7039V10.802L45.7401 10.2447C45.4097 9.53631 44.8776 9.0013 44.173 8.6691L43.6188 8.40774L40.0804 8.37811L36.5421 8.34848L36.5086 7.2628C36.4725 6.08994 36.3859 5.86717 35.7924 5.42115C35.5407 5.23201 35.3575 5.21295 33.5144 5.18502L31.51 5.1546L31.2171 4.58647C30.2117 2.63628 27.9879 1.61694 25.8651 2.1332ZM27.8694 5.43212C28.3134 5.76542 28.4946 6.10091 28.5875 6.76171C28.6811 7.4283 28.861 7.75741 29.3199 8.10227C29.5697 8.29012 29.7566 8.31067 31.4717 8.339L33.3499 8.36993V9.96008V11.5501H27H20.6501V9.954V8.35786H22.3896C23.6343 8.35786 24.2212 8.31915 24.453 8.22179C24.8903 8.03813 25.2928 7.53465 25.3636 7.08304C25.3957 6.87883 25.4439 6.56728 25.4708 6.39051C25.5306 5.99736 25.943 5.48609 26.3501 5.30034C26.7518 5.11719 27.541 5.18562 27.8694 5.43212ZM17.4913 12.6405C17.5275 13.8188 17.6137 14.0408 18.2079 14.4868C18.4797 14.6909 18.5516 14.6926 27 14.6926C35.4484 14.6926 35.5203 14.6909 35.7921 14.4868C36.3863 14.0408 36.4725 13.8188 36.5087 12.6405L36.5424 11.5501H39.7085H42.8747V30.7039V49.8576H27H11.1253V30.7039V11.5501H14.2915H17.4576L17.4913 12.6405ZM24.8172 21.2318C24.6808 21.2883 23.3313 22.5773 21.8181 24.096L19.0671 26.8574L17.8494 25.6473C16.5415 24.3473 16.3065 24.2181 15.5205 24.3664C15.0322 24.4585 14.4387 25.0552 14.3471 25.5462C14.1888 26.3942 14.2666 26.5128 16.3675 28.6276C18.0287 30.2997 18.3738 30.6015 18.6906 30.6588C19.5913 30.8217 19.5218 30.8755 23.304 27.0825C25.7864 24.5929 26.8334 23.4772 26.9121 23.2373C27.133 22.5641 26.8886 21.849 26.282 21.3936C25.9818 21.1683 25.1828 21.08 24.8172 21.2318ZM31.1125 24.4578C30.4551 24.7498 30.0778 25.5131 30.2184 26.2667C30.3053 26.7325 30.8003 27.2838 31.2507 27.4165C31.4882 27.4864 32.8373 27.5128 35.1534 27.4925C38.5487 27.463 38.7045 27.4533 38.9671 27.256C39.4877 26.865 39.6501 26.5462 39.6501 25.9154C39.6501 25.2847 39.4877 24.9658 38.9671 24.5749C38.7036 24.377 38.5563 24.3683 35.0542 24.3463C32.1799 24.3282 31.3515 24.3516 31.1125 24.4578ZM24.8172 34.0009C24.6808 34.0575 23.3313 35.3465 21.8181 36.8652L19.0671 39.6265L17.8494 38.4164C16.5461 37.1212 16.3051 36.9875 15.5349 37.1327C15.0662 37.2212 14.4323 37.8586 14.3443 38.3298C14.1884 39.1657 14.2683 39.2869 16.366 41.396C18.0255 43.0645 18.3744 43.3695 18.6906 43.4272C19.5904 43.5916 19.5215 43.645 23.304 39.8517C25.7864 37.3621 26.8334 36.2464 26.9121 36.0065C27.133 35.3333 26.8886 34.6181 26.282 34.1627C25.9818 33.9375 25.1828 33.8492 24.8172 34.0009ZM31.1125 37.2269C30.4551 37.5189 30.0778 38.2823 30.2184 39.0358C30.3053 39.5016 30.8003 40.053 31.2507 40.1857C31.4882 40.2556 32.8373 40.2819 35.1534 40.2617C38.5487 40.2321 38.7045 40.2225 38.9671 40.0251C39.4877 39.6342 39.6501 39.3154 39.6501 38.6846C39.6501 38.0538 39.4877 37.735 38.9671 37.344C38.7036 37.1461 38.5563 37.1374 35.0542 37.1155C32.1799 37.0973 31.3515 37.1208 31.1125 37.2269Z" fill="#D29650"/>
</svg>
