<svg width="55" height="55" viewBox="0 0 55 55" fill="none" xmlns="http://www.w3.org/2000/svg">
<path fill-rule="evenodd" clip-rule="evenodd" d="M7.24388 10.248C6.75534 10.5866 6.52333 11.114 6.58333 11.7502C6.64163 12.3692 6.88729 12.7272 7.45765 13.0245L7.89655 13.2533H20.632H33.3674V19.2365V25.2197L33.5917 25.5558C33.7149 25.7407 33.9425 25.9876 34.0972 26.1046C34.3749 26.3146 34.4623 26.3177 40.924 26.3478L47.4694 26.3784L48.6398 27.9236L49.8103 29.4689L49.8108 33.6626L49.8114 37.8563H48.2749H46.7382L46.5305 37.2197C45.9748 35.5161 44.3303 33.8735 42.5885 33.2822C39.2711 32.156 35.5725 33.9722 34.4748 37.2663L34.2952 37.8055H29.5386H24.7819L24.5028 37.0739C23.9508 35.6265 22.8863 34.4257 21.5078 33.6951C20.5403 33.1824 19.6759 32.9604 18.6203 32.9537C17.4926 32.9466 16.741 33.1146 15.7773 33.5891C14.2106 34.3607 12.9411 35.7903 12.4705 37.3132L12.3067 37.8431L10.0058 37.8751C7.47609 37.9103 7.29231 37.9522 6.81833 38.6008C6.51027 39.0224 6.52213 40.0202 6.84065 40.4757C7.29062 41.1194 7.45595 41.1568 10.0127 41.1939L12.3207 41.2275L12.5366 41.8163C13.0128 43.1157 14.2874 44.5951 15.4972 45.2529C16.7816 45.9512 18.6824 46.1938 20.0667 45.836C22.0827 45.315 23.7769 43.794 24.5085 41.8482L24.7468 41.2142L29.5372 41.2128L34.3277 41.2113L34.5 41.769C34.7318 42.5193 35.5418 43.7305 36.2373 44.3669C36.8819 44.9565 38.3251 45.7118 39.1277 45.8794C39.9699 46.0551 41.3131 46.0144 42.1863 45.7865C44.0648 45.2964 45.7177 43.7991 46.4511 41.9229L46.7095 41.2621L49.2819 41.2113C51.7443 41.1626 51.8701 41.1505 52.2211 40.9278C52.4364 40.7913 52.673 40.5157 52.7942 40.2604C52.9952 39.8368 53.0006 39.6814 53 34.2913C52.9997 30.9717 52.9602 28.6148 52.9014 28.4014C52.8456 28.1992 52.1317 27.1675 51.2482 26.0123L49.6931 23.979L47.3004 19.0991C45.9844 16.4151 44.7941 14.0656 44.6555 13.8779C44.2035 13.266 44.112 13.2533 40.1564 13.2533H36.5742L36.5404 12.1421C36.5032 10.9145 36.4066 10.6774 35.7603 10.2287L35.4308 10H21.5162H7.60156L7.24388 10.248ZM44.0308 19.7593C44.908 21.5483 45.6257 23.0351 45.6257 23.0634C45.6257 23.0917 43.5851 23.1148 41.0911 23.1148H36.5566V19.8107V16.5066H39.4963H42.4359L44.0308 19.7593ZM5.5038 16.8544C4.89059 17.1267 4.49892 17.9535 4.65419 18.6476C4.77538 19.1885 5.03191 19.5227 5.50609 19.7568C5.92636 19.9643 6.02762 19.9668 13.2143 19.9397C20.4263 19.9127 20.4994 19.9103 20.778 19.6997C20.9328 19.5827 21.1602 19.3357 21.2836 19.1509C21.7475 18.4556 21.4647 17.3578 20.7101 16.9252C20.337 16.7113 20.2883 16.7099 13.0729 16.7139C7.22076 16.7171 5.75156 16.7444 5.5038 16.8544ZM2.86788 23.3436C2.26363 23.6547 1.9516 24.2097 2.00611 24.8761C2.05076 25.4231 2.27679 25.7966 2.77061 26.1394L3.10009 26.3681H10.4455H17.7909L18.1203 26.1394C18.5973 25.8083 18.8326 25.436 18.8842 24.931C18.9505 24.2811 18.6042 23.6423 18.0235 23.3436L17.5788 23.1148H10.4455H3.31216L2.86788 23.3436ZM5.39308 29.8203C4.54098 30.3503 4.36289 31.5635 5.03071 32.2884C5.56768 32.8714 5.59619 32.8747 9.92834 32.8747C13.8917 32.8747 13.9034 32.8741 14.339 32.6391C15.2189 32.1644 15.4774 30.9739 14.8624 30.2283C14.3539 29.6117 14.4338 29.6214 9.87741 29.6218C5.92407 29.6221 5.69535 29.6323 5.39308 29.8203ZM19.6802 36.4479C20.4439 36.7394 21.1093 37.3869 21.4569 38.177C21.7013 38.7328 21.7259 38.8877 21.6861 39.6241C21.6314 40.6358 21.3318 41.2991 20.6551 41.9067C19.1935 43.2192 16.9558 42.9291 15.9052 41.2911C15.01 39.8954 15.1799 38.2873 16.3448 37.1267C17.2174 36.2573 18.4982 35.9968 19.6802 36.4479ZM41.8807 36.5285C43.8597 37.5156 44.3151 40.2457 42.7581 41.7871C41.208 43.3218 38.6481 42.9113 37.6858 40.974C36.7719 39.1343 37.6834 36.97 39.646 36.3198C40.1447 36.1546 41.3583 36.2678 41.8807 36.5285Z" fill="#D29650"/>
</svg>
