<svg width="55" height="55" viewBox="0 0 55 55" fill="none" xmlns="http://www.w3.org/2000/svg">
<path fill-rule="evenodd" clip-rule="evenodd" d="M28.1419 4.02815C25.9944 4.25968 23.8917 5.03137 22.0298 6.27145C19.1116 8.21512 17.0629 11.2613 16.3012 14.7892C16.0645 15.885 16.0665 18.9853 16.3046 20.0891C17.4757 25.5203 21.6011 29.5889 27.0379 30.6751C28.1859 30.9043 30.8227 30.9034 31.9758 30.6732C37.5855 29.5534 41.7669 25.2836 42.7842 19.6366C42.974 18.5826 42.974 16.279 42.7842 15.2251C42.0096 10.9251 39.2551 7.21979 35.4581 5.37012C34.3724 4.8413 33.1276 4.4184 32.0172 4.20123C31.2573 4.05254 28.8943 3.947 28.1419 4.02815ZM31.1489 6.92184C33.4734 7.29896 35.4856 8.34655 37.1325 10.037C40.2956 13.2838 41.0439 18.1708 38.9973 22.2152C37.9474 24.2898 36.3013 25.928 34.2387 26.9506C30.792 28.6594 26.8251 28.4092 23.5928 26.2791C22.8323 25.778 21.5682 24.5741 20.954 23.7661C20.3085 22.9168 19.5152 21.2699 19.2129 20.1514C18.9792 19.2866 18.9594 19.0738 18.9594 17.4308C18.9594 15.7994 18.9803 15.5713 19.2061 14.7379C19.6902 12.9509 20.566 11.4173 21.8816 10.0522C24.2942 7.54916 27.7725 6.37418 31.1489 6.92184ZM7.87709 8.60388C7.49149 8.7718 7.10561 9.24911 7.0301 9.65137C6.94925 10.0827 7.20484 10.7566 7.54007 10.9952C7.67936 11.0945 8.52447 11.5382 9.41798 11.9814C11.1994 12.865 11.5581 12.9469 12.1269 12.6C12.6052 12.3084 12.8228 11.8875 12.782 11.3331C12.7236 10.5387 12.5895 10.4236 10.5294 9.39958C9.50296 8.88934 8.55064 8.47357 8.41314 8.47554C8.27563 8.47761 8.03448 8.5353 7.87709 8.60388ZM48.6365 9.316C47.6822 9.78946 46.8023 10.2682 46.6813 10.3797C45.7303 11.2569 46.3026 12.7857 47.5823 12.7868C48.1474 12.7874 51.4259 11.153 51.7374 10.7156C52.0537 10.2714 52.0852 9.6312 51.8105 9.231C51.5071 8.78878 51.1707 8.56054 50.7388 8.50359C50.4167 8.4611 50.1592 8.56063 48.6365 9.316ZM28.9814 10.0999C28.5745 10.2842 28.1986 10.7701 28.1296 11.2009C28.0819 11.4998 28.0238 11.5812 27.8249 11.6278C27.3089 11.7487 26.4725 12.2755 26.0332 12.7563C24.3185 14.6326 25.0896 17.6946 27.5058 18.6043C27.9291 18.7637 28.3352 18.8201 29.3568 18.8614C30.5597 18.91 30.6828 18.9316 30.881 19.1298C31.1733 19.4223 31.1687 19.9162 30.8704 20.2634L30.6442 20.5266L29.0648 20.5735C28.0595 20.6033 27.4112 20.6628 27.2816 20.7371C26.7476 21.0428 26.4902 21.7323 26.6771 22.3563C26.8078 22.7926 27.3217 23.2636 27.7559 23.3451C28.0295 23.3965 28.0863 23.4527 28.1368 23.7222C28.2473 24.3113 28.9303 24.8888 29.5162 24.8888C29.6306 24.8888 29.8985 24.8044 30.1116 24.7012C30.5305 24.4984 30.9089 23.9539 30.9089 23.5541C30.9089 23.3639 30.9785 23.3033 31.3076 23.207C32.2437 22.9328 33.1633 22.1145 33.6122 21.1568C33.8323 20.6871 33.8635 20.5038 33.8635 19.6823C33.8635 18.8608 33.8323 18.6775 33.6122 18.2078C33.2613 17.459 32.6024 16.7878 31.859 16.4215C31.2737 16.1332 31.171 16.1146 29.8794 16.0617C29.1302 16.031 28.4457 15.9747 28.3586 15.9365C27.9797 15.7708 27.7929 15.1466 28.004 14.7521C28.2083 14.3703 28.5695 14.2882 30.0462 14.2882C31.3432 14.2882 31.4669 14.2728 31.7627 14.0752C32.3411 13.6887 32.5704 12.9012 32.2724 12.3246C32.0757 11.9443 31.6326 11.6011 31.2439 11.5282C30.9748 11.4777 30.9089 11.4228 30.9089 11.249C30.9089 10.9871 30.5762 10.4785 30.2442 10.2326C29.9279 9.99828 29.3419 9.93674 28.9814 10.0999ZM9.21979 22.9891C7.48333 23.8681 7.40435 23.9203 7.19593 24.3259C6.84391 25.011 7.01472 25.6502 7.6834 26.1494C8.20003 26.5352 8.62812 26.4338 10.5791 25.4629C12.5493 24.4826 12.723 24.3307 12.7814 23.5372C12.8229 22.9735 12.6082 22.5551 12.1269 22.2616C11.5377 21.9023 11.2001 21.9868 9.21979 22.9891ZM46.8448 22.2874C46.4033 22.5824 46.1786 23.0496 46.2238 23.5782C46.2876 24.3243 46.4371 24.4493 48.49 25.4706C50.1506 26.2968 50.4149 26.4011 50.7388 26.3583C51.1708 26.3011 51.5072 26.0728 51.8105 25.6307C51.9847 25.3769 52.0216 25.2215 51.9896 24.8774C51.9194 24.1229 51.7136 23.9471 49.7509 22.9649C47.7654 21.9713 47.4337 21.894 46.8448 22.2874ZM41.7856 32.8508C40.9122 33.0423 39.8105 33.5123 39.0997 33.9968C38.8508 34.1664 38.0932 34.8483 37.4161 35.5119L36.1849 36.7185L35.9355 36.2928C35.3205 35.2431 34.0595 34.3911 32.8088 34.1801C32.3517 34.103 30.5614 34.0815 26.682 34.1065C20.6551 34.1453 20.8361 34.129 19.5637 34.7507C18.6258 35.209 17.5498 36.3313 17.0118 37.4126C16.7807 37.8769 16.5665 38.3533 16.5359 38.4711C16.4814 38.6803 16.4556 38.6847 15.417 38.6588L14.3538 38.6321L14.3056 37.5533C14.2522 36.3605 14.1784 36.1669 13.6503 35.8359C13.3251 35.6321 13.2827 35.6302 9.13143 35.6302C5.04536 35.6302 4.93449 35.635 4.68189 35.8236C4.53942 35.93 4.33588 36.1336 4.22951 36.2761C4.03863 36.5316 4.03573 36.6295 4.01096 43.7051C3.9862 50.753 3.98902 50.8816 4.17633 51.2489C4.29958 51.4904 4.49768 51.6891 4.73714 51.8113C5.09122 51.992 5.28323 52.0002 9.16773 52C13.6947 51.9999 13.6588 52.0046 14.0939 51.3531C14.2826 51.0707 14.3069 50.9184 14.3069 50.0191V49.0038L24.6011 48.974C36.1596 48.9406 35.254 48.9965 36.7712 48.2247C37.4912 47.8584 37.7521 47.6128 43.214 42.1588C49.521 35.8608 49.2132 36.2319 48.8717 35.3375C48.5626 34.5281 46.6789 33.2967 45.1661 32.9151C44.1975 32.6707 42.7341 32.6429 41.7856 32.8508ZM44.2281 35.5891C44.4602 35.6414 44.8329 35.753 45.0563 35.8369L45.4625 35.9897L40.7436 40.7099C35.74 45.715 35.5804 45.8522 34.4921 46.0799C34.1464 46.1522 30.9957 46.1839 24.1509 46.1839H14.3069V43.847V41.5101L16.2063 41.4782C17.9137 41.4496 18.1385 41.4271 18.4306 41.2555C18.877 40.9932 19.0933 40.579 19.1912 39.7987C19.3457 38.5681 19.8962 37.7688 20.9448 37.2523L21.5718 36.9435L26.8473 36.9158C30.4398 36.8968 32.2437 36.9204 32.502 36.9901C34.1418 37.4316 34.1033 39.7065 32.4494 40.0902C32.2469 40.1371 30.8319 40.1765 29.3048 40.1777C26.5813 40.18 26.5223 40.184 26.219 40.3911C25.3263 41.0005 25.379 42.2039 26.3227 42.7598C26.6171 42.9333 26.8399 42.9497 29.2675 42.9767C32.4313 43.012 33.1287 42.9379 34.098 42.4637C34.7437 42.1479 35.0441 41.8791 37.7561 39.1913C40.8816 36.0937 41.1169 35.9069 42.2371 35.6353C42.8851 35.4782 43.6563 35.4603 44.2281 35.5891ZM11.493 43.7917V49.1859H9.14803H6.80311V43.7917V38.3976H9.14803H11.493V43.7917Z" fill="#D29650"/>
</svg>
